<svg id="visual" viewBox="0 0 900 600" width="900" height="600" xmlns="http://www.w3.org/2000/svg" xmlns:xlink="http://www.w3.org/1999/xlink" version="1.1"><rect x="0" y="0" width="900" height="600" fill="#2eb875"></rect><defs><linearGradient id="grad1_0" x1="33.3%" y1="0%" x2="100%" y2="100%"><stop offset="20%" stop-color="#2eb875" stop-opacity="1"></stop><stop offset="80%" stop-color="#2eb875" stop-opacity="1"></stop></linearGradient></defs><defs><linearGradient id="grad2_0" x1="0%" y1="0%" x2="66.7%" y2="100%"><stop offset="20%" stop-color="#2eb875" stop-opacity="1"></stop><stop offset="80%" stop-color="#2eb875" stop-opacity="1"></stop></linearGradient></defs><g transform="translate(900, 0)"><path d="M0 388C-45.4 377.8 -90.8 367.5 -150.4 363.1C-210 358.6 -283.9 360 -325.1 325.1C-366.2 290.2 -374.7 219 -383.4 158.8C-392.1 98.6 -401.1 49.3 -410 0L0 0Z" fill="#6675ff"></path></g><g transform="translate(0, 600)"><path d="M0 -392C39.6 -368.8 79.3 -345.6 142 -342.8C204.7 -339.9 290.5 -357.5 325.1 -325.1C359.6 -292.6 343 -210.2 356.6 -147.7C370.2 -85.2 414.1 -42.6 458 0L0 0Z" fill="#6675ff"></path></g></svg>